<svg width="58" height="53" viewBox="0 0 58 53" fill="none" xmlns="http://www.w3.org/2000/svg">
<path opacity="0.25" d="M3.02344 14.5547C3.30469 12.5859 3.79688 10.7344 4.5 9C5.20312 7.21875 6.04688 5.67188 7.03125 4.35938C8.01562 3 9.07031 1.94531 10.1953 1.19531C11.3672 0.398438 12.5391 0 13.7109 0C15.9141 0 18.1406 0.351562 20.3906 1.05469C22.6406 1.71094 24.4219 2.85938 25.7344 4.5C26.1094 5.01562 26.4609 5.64844 26.7891 6.39844C27.1641 7.10156 27.4453 7.99219 27.6328 9.07031C27.8672 10.1016 27.9844 11.3437 27.9844 12.7969C28.0312 14.25 27.9141 15.9609 27.6328 17.9297C27.2109 20.7422 26.6016 23.4844 25.8047 26.1562C25.0078 28.7812 23.7656 31.4531 22.0781 34.1719C20.4375 36.8906 18.2109 39.7266 15.3984 42.6797C12.6328 45.5859 9.07031 48.7266 4.71094 52.1016L0 45.3516C2.67188 43.3359 4.94531 41.4609 6.82031 39.7266C8.69531 37.9453 10.2188 36.2812 11.3906 34.7344C12.6094 33.1406 13.5234 31.6875 14.1328 30.375C14.7422 29.0156 15.1172 27.75 15.2578 26.5781C15.4453 25.4531 15.1406 24.6094 14.3438 24.0469C13.5469 23.4375 12.4922 22.9453 11.1797 22.5703C8.50781 21.8672 6.42188 20.8125 4.92188 19.4062C3.42188 17.9531 2.78906 16.3359 3.02344 14.5547ZM32.2734 14.5547C32.5547 12.5859 33.0469 10.7344 33.75 9C34.4531 7.21875 35.2969 5.67188 36.2812 4.35938C37.2656 3 38.3203 1.94531 39.4453 1.19531C40.6172 0.398438 41.7891 0 42.9609 0C45.1641 0 47.3906 0.351562 49.6406 1.05469C51.8906 1.71094 53.6719 2.85938 54.9844 4.5C55.3594 5.01562 55.7109 5.64844 56.0391 6.39844C56.4141 7.10156 56.6953 7.99219 56.8828 9.07031C57.1172 10.1016 57.2344 11.3437 57.2344 12.7969C57.2812 14.25 57.1641 15.9609 56.8828 17.9297C56.4609 20.7422 55.8516 23.4844 55.0547 26.1562C54.2578 28.7812 53.0156 31.4531 51.3281 34.1719C49.6875 36.8906 47.4609 39.7266 44.6484 42.6797C41.8828 45.5859 38.3203 48.7266 33.9609 52.1016L29.1797 45.3516C31.8516 43.3359 34.125 41.4609 36 39.7266C37.875 37.9453 39.4219 36.2812 40.6406 34.7344C41.8594 33.1406 42.7734 31.6875 43.3828 30.375C43.9922 29.0156 44.3672 27.75 44.5078 26.5781C44.6953 25.4531 44.3906 24.6094 43.5938 24.0469C42.7969 23.4375 41.7422 22.9453 40.4297 22.5703C37.7578 21.8672 35.6719 20.8125 34.1719 19.4062C32.6719 17.9531 32.0391 16.3359 32.2734 14.5547Z" fill="#F4F4ED"/>
</svg>
