<svg width="58" height="53" viewBox="0 0 58 53" fill="none" xmlns="http://www.w3.org/2000/svg">
<path opacity="0.25" d="M24.9609 37.5469C24.6797 39.5156 24.1875 41.3906 23.4844 43.1719C22.7812 44.9062 21.9375 46.4531 20.9531 47.8125C19.9688 49.125 18.8906 50.1797 17.7188 50.9766C16.5938 51.7266 15.4453 52.1016 14.2734 52.1016C13.1953 52.1016 12.0703 52.0312 10.8984 51.8906C9.77344 51.7031 8.67188 51.4453 7.59375 51.1172C6.5625 50.7422 5.57812 50.2734 4.64062 49.7109C3.70312 49.1484 2.92969 48.4453 2.32031 47.6016C1.94531 47.0859 1.57031 46.4766 1.19531 45.7734C0.867188 45.0234 0.585938 44.1328 0.351562 43.1016C0.164062 42.0234 0.046875 40.7578 0 39.3047C0 37.8516 0.140625 36.1406 0.421875 34.1719C0.84375 31.3594 1.42969 28.6406 2.17969 26.0156C2.97656 23.3438 4.19531 20.6484 5.83594 17.9297C7.52344 15.2109 9.75 12.3984 12.5156 9.49219C15.3281 6.53906 18.9141 3.375 23.2734 0L28.0547 6.75C25.3828 8.76563 23.1094 10.6641 21.2344 12.4453C19.3594 14.1797 17.8125 15.8437 16.5938 17.4375C15.375 18.9844 14.4609 20.4375 13.8516 21.7969C13.2422 23.1094 12.8672 24.3516 12.7266 25.5234C12.5391 26.6484 12.8438 27.5156 13.6406 28.125C14.4375 28.6875 15.4922 29.1562 16.8047 29.5312C19.4766 30.2344 21.5625 31.3125 23.0625 32.7656C24.5625 34.1719 25.1953 35.7656 24.9609 37.5469ZM54.2109 37.5469C53.9297 39.5156 53.4375 41.3906 52.7344 43.1719C52.0312 44.9062 51.1875 46.4531 50.2031 47.8125C49.2188 49.125 48.1406 50.1797 46.9688 50.9766C45.8438 51.7266 44.6953 52.1016 43.5234 52.1016C41.3203 52.1016 39.0938 51.7734 36.8438 51.1172C34.5938 50.4141 32.8125 49.2422 31.5 47.6016C31.125 47.0859 30.75 46.4766 30.375 45.7734C30.0469 45.0234 29.7656 44.1328 29.5312 43.1016C29.3438 42.0234 29.2266 40.7578 29.1797 39.3047C29.1797 37.8516 29.3203 36.1406 29.6016 34.1719C30.0234 31.3594 30.6328 28.6406 31.4297 26.0156C32.2266 23.3438 33.4453 20.6484 35.0859 17.9297C36.7734 15.2109 39 12.3984 41.7656 9.49219C44.5781 6.53906 48.1641 3.375 52.5234 0L57.3047 6.75C54.6328 8.76563 52.3594 10.6641 50.4844 12.4453C48.6094 14.1797 47.0625 15.8437 45.8438 17.4375C44.625 18.9844 43.7109 20.4375 43.1016 21.7969C42.4922 23.1094 42.1172 24.3516 41.9766 25.5234C41.7891 26.6484 42.0938 27.5156 42.8906 28.125C43.6875 28.6875 44.7422 29.1562 46.0547 29.5312C48.7266 30.2344 50.8125 31.3125 52.3125 32.7656C53.8125 34.1719 54.4453 35.7656 54.2109 37.5469Z" fill="#F4F4ED"/>
</svg>
